# xmcd CD database file
#
# Track frame offsets:
#	150
#	15166
#	35619
#	47848
#	67919
#	69839
#	91820
#	93114
#	111928
#	138838
#	164554
#	193053
#
# Disc length: 2838 seconds
#
# Revision: 1
# Processed by: cddbd v1.5.1PL0 Copyright (c) Steve Scherf et al.
# Submitted via: CDex 1.51
#
DISCID=920b140c
DTITLE=Dan Barnett - Point of No Return
DYEAR=2003
DGENRE=Jazz
TTITLE0=Point of No Return
TTITLE1=Is You Is (or is you ain't my baby) 
TTITLE2=Lover Come Back to Me
TTITLE3=Stella by Starlight 
TTITLE4=Ode To The King pt 1
TTITLE5=Angel Eyes 
TTITLE6=The Arrival 
TTITLE7=Perdido
TTITLE8=Red Top 
TTITLE9=In a Sentimental mood 
TTITLE10=Cheek to Cheek
TTITLE11=Drip Drop 
EXTD=YEAR: 2003
EXTT0=
EXTT1=
EXTT2=
EXTT3=
EXTT4=
EXTT5=
EXTT6=
EXTT7=
EXTT8=
EXTT9=
EXTT10=
EXTT11=
PLAYORDER=
